# xmcd CD database file
#
# Track frame offsets:
#	150
#	17782
#	45776
#	59895
#	92482
#	116235
#	146958
#	167627
#	191556
#	214574
#	229277
#	251609
#	268553
#	296443
#	311573
#
# Disc length: 4331 seconds
#
# Revision: 4
# Processed by: cddbd v1.5.2PL0 Copyright (c) Steve Scherf et al.
# Submitted via: CDex 1.51
#
DISCID=dc10e90f
DTITLE=THE MUSIC OF PETER GREEN - Rattlesnake Guitar
DYEAR=1995
DGENRE=Blues
TTITLE0=Black Magic Woman(Larry McCray)
TTITLE1=Love That Burns(Dave Peverett, Rod Price)
TTITLE2=Stop Messin' 'Round(Savoy Brown Feat. Kim Simmonds)
TTITLE3=Looking For Somebody(Snowy White)
TTITLE4=Cryin' Won't Bring You Back(Luther Grosvenor. Mike Kellie, Jess Roden)
TTITLE5=Leaving Town Blues(Rory Gallagher)
TTITLE6=If You Be My Baby(Dave Peverett, Rod Price)
TTITLE7=Ramblin' Pony(Harvey Mandel, Wilbur Boscomb) 
TTITLE8=The Green Manalishi(Arthur Brown)
TTITLE9=Hellhounds On My Trail(Ken Hensley)
TTITLE10=I Loved Another Woman(Larry Mitchell, Jay Aston)
TTITLE11=The Same Way(Mick Abrahams)
TTITLE12=Drifting(Top Topham, Jim McCarty)
TTITLE13=The Supernatural(Clas Yngstrom)
TTITLE14=Man Of The World(Ian Anderson)
EXTD=Viceroy Entertainment\nRecorded at various locations\n YEAR: 1995
EXTT0=
EXTT1=
EXTT2=
EXTT3=
EXTT4=
EXTT5=
EXTT6=
EXTT7=
EXTT8=
EXTT9=
EXTT10=
EXTT11=
EXTT12=
EXTT13=
EXTT14=
PLAYORDER=
